<mxfile host="app.diagrams.net" modified="2024-04-08T08:58:21.446Z" agent="Mozilla/5.0 (Windows NT 10.0; Win64; x64) AppleWebKit/537.36 (KHTML, like Gecko) Chrome/123.0.0.0 Safari/537.36" etag="np4_zVCwhxEQN4q6EUBv" version="24.2.2" type="github">
  <diagram name="第 1 页" id="_N-PvDVG6uPUZHmfjQiG">
    <mxGraphModel dx="1613" dy="696" grid="1" gridSize="10" guides="1" tooltips="1" connect="1" arrows="1" fold="1" page="1" pageScale="1" pageWidth="827" pageHeight="1169" math="0" shadow="0">
      <root>
        <mxCell id="0" />
        <mxCell id="1" parent="0" />
        <mxCell id="1qLdY8RK0upAKAE9O1Ap-11" style="edgeStyle=orthogonalEdgeStyle;rounded=0;orthogonalLoop=1;jettySize=auto;html=1;" edge="1" parent="1" source="1qLdY8RK0upAKAE9O1Ap-1" target="1qLdY8RK0upAKAE9O1Ap-10">
          <mxGeometry relative="1" as="geometry" />
        </mxCell>
        <mxCell id="1qLdY8RK0upAKAE9O1Ap-1" value="登录" style="rounded=1;whiteSpace=wrap;html=1;" vertex="1" parent="1">
          <mxGeometry x="180" y="70" width="120" height="60" as="geometry" />
        </mxCell>
        <mxCell id="1qLdY8RK0upAKAE9O1Ap-75" style="edgeStyle=orthogonalEdgeStyle;rounded=0;orthogonalLoop=1;jettySize=auto;html=1;entryX=0;entryY=0.5;entryDx=0;entryDy=0;" edge="1" parent="1" source="1qLdY8RK0upAKAE9O1Ap-5" target="1qLdY8RK0upAKAE9O1Ap-72">
          <mxGeometry relative="1" as="geometry" />
        </mxCell>
        <mxCell id="1qLdY8RK0upAKAE9O1Ap-79" value="pc" style="edgeLabel;html=1;align=center;verticalAlign=middle;resizable=0;points=[];" vertex="1" connectable="0" parent="1qLdY8RK0upAKAE9O1Ap-75">
          <mxGeometry x="0.5378" y="-1" relative="1" as="geometry">
            <mxPoint as="offset" />
          </mxGeometry>
        </mxCell>
        <mxCell id="1qLdY8RK0upAKAE9O1Ap-86" value="60*60*3" style="edgeLabel;html=1;align=center;verticalAlign=middle;resizable=0;points=[];" vertex="1" connectable="0" parent="1qLdY8RK0upAKAE9O1Ap-75">
          <mxGeometry x="0.2922" y="-1" relative="1" as="geometry">
            <mxPoint x="361" as="offset" />
          </mxGeometry>
        </mxCell>
        <mxCell id="1qLdY8RK0upAKAE9O1Ap-78" style="edgeStyle=orthogonalEdgeStyle;rounded=0;orthogonalLoop=1;jettySize=auto;html=1;entryX=0;entryY=0.5;entryDx=0;entryDy=0;" edge="1" parent="1" source="1qLdY8RK0upAKAE9O1Ap-5" target="1qLdY8RK0upAKAE9O1Ap-71">
          <mxGeometry relative="1" as="geometry">
            <Array as="points">
              <mxPoint x="830" y="210" />
              <mxPoint x="830" y="390" />
            </Array>
          </mxGeometry>
        </mxCell>
        <mxCell id="1qLdY8RK0upAKAE9O1Ap-80" value="app" style="edgeLabel;html=1;align=center;verticalAlign=middle;resizable=0;points=[];" vertex="1" connectable="0" parent="1qLdY8RK0upAKAE9O1Ap-78">
          <mxGeometry x="0.6525" y="2" relative="1" as="geometry">
            <mxPoint x="-1" as="offset" />
          </mxGeometry>
        </mxCell>
        <mxCell id="1qLdY8RK0upAKAE9O1Ap-5" value="员工账号密码登录" style="rounded=0;whiteSpace=wrap;html=1;" vertex="1" parent="1">
          <mxGeometry x="480" y="180" width="120" height="60" as="geometry" />
        </mxCell>
        <mxCell id="1qLdY8RK0upAKAE9O1Ap-12" style="edgeStyle=orthogonalEdgeStyle;rounded=0;orthogonalLoop=1;jettySize=auto;html=1;entryX=0;entryY=0.5;entryDx=0;entryDy=0;" edge="1" parent="1" source="1qLdY8RK0upAKAE9O1Ap-10" target="1qLdY8RK0upAKAE9O1Ap-5">
          <mxGeometry relative="1" as="geometry" />
        </mxCell>
        <mxCell id="1qLdY8RK0upAKAE9O1Ap-13" value="y" style="edgeLabel;html=1;align=center;verticalAlign=middle;resizable=0;points=[];" vertex="1" connectable="0" parent="1qLdY8RK0upAKAE9O1Ap-12">
          <mxGeometry x="-0.6134" y="-2" relative="1" as="geometry">
            <mxPoint as="offset" />
          </mxGeometry>
        </mxCell>
        <mxCell id="1qLdY8RK0upAKAE9O1Ap-16" style="edgeStyle=orthogonalEdgeStyle;rounded=0;orthogonalLoop=1;jettySize=auto;html=1;" edge="1" parent="1" source="1qLdY8RK0upAKAE9O1Ap-10">
          <mxGeometry relative="1" as="geometry">
            <mxPoint x="240" y="310" as="targetPoint" />
          </mxGeometry>
        </mxCell>
        <mxCell id="1qLdY8RK0upAKAE9O1Ap-17" value="n" style="edgeLabel;html=1;align=center;verticalAlign=middle;resizable=0;points=[];" vertex="1" connectable="0" parent="1qLdY8RK0upAKAE9O1Ap-16">
          <mxGeometry x="-0.1837" y="-3" relative="1" as="geometry">
            <mxPoint as="offset" />
          </mxGeometry>
        </mxCell>
        <mxCell id="1qLdY8RK0upAKAE9O1Ap-10" value="isPc" style="rhombus;whiteSpace=wrap;html=1;" vertex="1" parent="1">
          <mxGeometry x="200" y="170" width="80" height="80" as="geometry" />
        </mxCell>
        <mxCell id="1qLdY8RK0upAKAE9O1Ap-21" style="edgeStyle=orthogonalEdgeStyle;rounded=0;orthogonalLoop=1;jettySize=auto;html=1;entryX=0;entryY=0.75;entryDx=0;entryDy=0;" edge="1" parent="1" source="1qLdY8RK0upAKAE9O1Ap-18" target="1qLdY8RK0upAKAE9O1Ap-5">
          <mxGeometry relative="1" as="geometry" />
        </mxCell>
        <mxCell id="1qLdY8RK0upAKAE9O1Ap-22" value="y&lt;div&gt;&lt;br&gt;&lt;/div&gt;" style="edgeLabel;html=1;align=center;verticalAlign=middle;resizable=0;points=[];" vertex="1" connectable="0" parent="1qLdY8RK0upAKAE9O1Ap-21">
          <mxGeometry x="-0.5273" y="4" relative="1" as="geometry">
            <mxPoint as="offset" />
          </mxGeometry>
        </mxCell>
        <mxCell id="1qLdY8RK0upAKAE9O1Ap-23" style="edgeStyle=orthogonalEdgeStyle;rounded=0;orthogonalLoop=1;jettySize=auto;html=1;" edge="1" parent="1" source="1qLdY8RK0upAKAE9O1Ap-18">
          <mxGeometry relative="1" as="geometry">
            <mxPoint x="240" y="460" as="targetPoint" />
          </mxGeometry>
        </mxCell>
        <mxCell id="1qLdY8RK0upAKAE9O1Ap-24" value="n&lt;div&gt;&lt;br&gt;&lt;/div&gt;" style="edgeLabel;html=1;align=center;verticalAlign=middle;resizable=0;points=[];" vertex="1" connectable="0" parent="1qLdY8RK0upAKAE9O1Ap-23">
          <mxGeometry x="-0.2661" y="-2" relative="1" as="geometry">
            <mxPoint as="offset" />
          </mxGeometry>
        </mxCell>
        <mxCell id="1qLdY8RK0upAKAE9O1Ap-18" value="账号密码是否有" style="rhombus;whiteSpace=wrap;html=1;" vertex="1" parent="1">
          <mxGeometry x="200" y="310" width="80" height="80" as="geometry" />
        </mxCell>
        <mxCell id="1qLdY8RK0upAKAE9O1Ap-19" value="&lt;pre style=&quot;background-color:#2b2b2b;color:#a9b7c6;font-family:&#39;JetBrains Mono&#39;,monospace;font-size:9.8pt;&quot;&gt;&lt;span style=&quot;color:#6a8759;&quot;&gt;/app/login&lt;/span&gt;&lt;/pre&gt;" style="text;html=1;align=center;verticalAlign=middle;resizable=0;points=[];autosize=1;strokeColor=none;fillColor=none;" vertex="1" parent="1">
          <mxGeometry x="125" y="23" width="90" height="60" as="geometry" />
        </mxCell>
        <mxCell id="1qLdY8RK0upAKAE9O1Ap-20" value="api/login" style="text;html=1;align=center;verticalAlign=middle;resizable=0;points=[];autosize=1;strokeColor=none;fillColor=none;" vertex="1" parent="1">
          <mxGeometry x="275" y="38" width="70" height="30" as="geometry" />
        </mxCell>
        <mxCell id="1qLdY8RK0upAKAE9O1Ap-31" style="edgeStyle=orthogonalEdgeStyle;rounded=0;orthogonalLoop=1;jettySize=auto;html=1;entryX=0;entryY=0.5;entryDx=0;entryDy=0;" edge="1" parent="1" source="1qLdY8RK0upAKAE9O1Ap-25" target="1qLdY8RK0upAKAE9O1Ap-30">
          <mxGeometry relative="1" as="geometry" />
        </mxCell>
        <mxCell id="1qLdY8RK0upAKAE9O1Ap-32" value="y" style="edgeLabel;html=1;align=center;verticalAlign=middle;resizable=0;points=[];" vertex="1" connectable="0" parent="1qLdY8RK0upAKAE9O1Ap-31">
          <mxGeometry x="-0.0645" y="-2" relative="1" as="geometry">
            <mxPoint as="offset" />
          </mxGeometry>
        </mxCell>
        <mxCell id="1qLdY8RK0upAKAE9O1Ap-48" style="edgeStyle=orthogonalEdgeStyle;rounded=0;orthogonalLoop=1;jettySize=auto;html=1;" edge="1" parent="1" source="1qLdY8RK0upAKAE9O1Ap-25" target="1qLdY8RK0upAKAE9O1Ap-46">
          <mxGeometry relative="1" as="geometry" />
        </mxCell>
        <mxCell id="1qLdY8RK0upAKAE9O1Ap-25" value="员工id是否有" style="rhombus;whiteSpace=wrap;html=1;" vertex="1" parent="1">
          <mxGeometry x="200" y="460" width="80" height="80" as="geometry" />
        </mxCell>
        <mxCell id="1qLdY8RK0upAKAE9O1Ap-81" style="edgeStyle=orthogonalEdgeStyle;rounded=0;orthogonalLoop=1;jettySize=auto;html=1;entryX=0;entryY=0.5;entryDx=0;entryDy=0;" edge="1" parent="1">
          <mxGeometry relative="1" as="geometry">
            <mxPoint x="600" y="520" as="sourcePoint" />
            <mxPoint x="1060" y="410" as="targetPoint" />
            <Array as="points">
              <mxPoint x="830" y="520" />
              <mxPoint x="830" y="410" />
            </Array>
          </mxGeometry>
        </mxCell>
        <mxCell id="1qLdY8RK0upAKAE9O1Ap-30" value="员工登录" style="rounded=0;whiteSpace=wrap;html=1;" vertex="1" parent="1">
          <mxGeometry x="480" y="470" width="120" height="60" as="geometry" />
        </mxCell>
        <mxCell id="1qLdY8RK0upAKAE9O1Ap-39" style="edgeStyle=orthogonalEdgeStyle;rounded=0;orthogonalLoop=1;jettySize=auto;html=1;" edge="1" parent="1" source="1qLdY8RK0upAKAE9O1Ap-35" target="1qLdY8RK0upAKAE9O1Ap-37">
          <mxGeometry relative="1" as="geometry" />
        </mxCell>
        <mxCell id="1qLdY8RK0upAKAE9O1Ap-40" value="y" style="edgeLabel;html=1;align=center;verticalAlign=middle;resizable=0;points=[];" vertex="1" connectable="0" parent="1qLdY8RK0upAKAE9O1Ap-39">
          <mxGeometry x="-0.0676" y="-3" relative="1" as="geometry">
            <mxPoint as="offset" />
          </mxGeometry>
        </mxCell>
        <mxCell id="1qLdY8RK0upAKAE9O1Ap-50" style="edgeStyle=orthogonalEdgeStyle;rounded=0;orthogonalLoop=1;jettySize=auto;html=1;" edge="1" parent="1" source="1qLdY8RK0upAKAE9O1Ap-35">
          <mxGeometry relative="1" as="geometry">
            <mxPoint x="240" y="810" as="targetPoint" />
          </mxGeometry>
        </mxCell>
        <mxCell id="1qLdY8RK0upAKAE9O1Ap-35" value="openId是否有" style="rhombus;whiteSpace=wrap;html=1;" vertex="1" parent="1">
          <mxGeometry x="200" y="690" width="80" height="80" as="geometry" />
        </mxCell>
        <mxCell id="1qLdY8RK0upAKAE9O1Ap-83" style="edgeStyle=orthogonalEdgeStyle;rounded=0;orthogonalLoop=1;jettySize=auto;html=1;entryX=0;entryY=0.5;entryDx=0;entryDy=0;" edge="1" parent="1" source="1qLdY8RK0upAKAE9O1Ap-37" target="1qLdY8RK0upAKAE9O1Ap-82">
          <mxGeometry relative="1" as="geometry">
            <Array as="points">
              <mxPoint x="820" y="730" />
              <mxPoint x="820" y="630" />
            </Array>
          </mxGeometry>
        </mxCell>
        <mxCell id="1qLdY8RK0upAKAE9O1Ap-37" value="员工切换客户登录" style="rounded=0;whiteSpace=wrap;html=1;" vertex="1" parent="1">
          <mxGeometry x="480" y="700" width="120" height="60" as="geometry" />
        </mxCell>
        <mxCell id="1qLdY8RK0upAKAE9O1Ap-44" style="edgeStyle=orthogonalEdgeStyle;rounded=0;orthogonalLoop=1;jettySize=auto;html=1;" edge="1" source="1qLdY8RK0upAKAE9O1Ap-46" target="1qLdY8RK0upAKAE9O1Ap-30" parent="1">
          <mxGeometry relative="1" as="geometry">
            <mxPoint x="480" y="620" as="targetPoint" />
            <Array as="points">
              <mxPoint x="450" y="620" />
              <mxPoint x="450" y="520" />
            </Array>
          </mxGeometry>
        </mxCell>
        <mxCell id="1qLdY8RK0upAKAE9O1Ap-45" value="y" style="edgeLabel;html=1;align=center;verticalAlign=middle;resizable=0;points=[];" vertex="1" connectable="0" parent="1qLdY8RK0upAKAE9O1Ap-44">
          <mxGeometry x="-0.0676" y="-3" relative="1" as="geometry">
            <mxPoint as="offset" />
          </mxGeometry>
        </mxCell>
        <mxCell id="1qLdY8RK0upAKAE9O1Ap-49" style="edgeStyle=orthogonalEdgeStyle;rounded=0;orthogonalLoop=1;jettySize=auto;html=1;" edge="1" parent="1" source="1qLdY8RK0upAKAE9O1Ap-46" target="1qLdY8RK0upAKAE9O1Ap-35">
          <mxGeometry relative="1" as="geometry" />
        </mxCell>
        <mxCell id="1qLdY8RK0upAKAE9O1Ap-46" value="员工电话是否有" style="rhombus;whiteSpace=wrap;html=1;" vertex="1" parent="1">
          <mxGeometry x="200" y="580" width="80" height="80" as="geometry" />
        </mxCell>
        <mxCell id="1qLdY8RK0upAKAE9O1Ap-84" style="edgeStyle=orthogonalEdgeStyle;rounded=0;orthogonalLoop=1;jettySize=auto;html=1;" edge="1" parent="1" source="1qLdY8RK0upAKAE9O1Ap-52" target="1qLdY8RK0upAKAE9O1Ap-82">
          <mxGeometry relative="1" as="geometry">
            <Array as="points">
              <mxPoint x="240" y="920" />
              <mxPoint x="1110" y="920" />
            </Array>
          </mxGeometry>
        </mxCell>
        <mxCell id="1qLdY8RK0upAKAE9O1Ap-52" value="微信授权登录" style="rounded=0;whiteSpace=wrap;html=1;" vertex="1" parent="1">
          <mxGeometry x="180" y="810" width="120" height="60" as="geometry" />
        </mxCell>
        <mxCell id="1qLdY8RK0upAKAE9O1Ap-63" value="" style="image;sketch=0;aspect=fixed;html=1;points=[];align=center;fontSize=12;image=img/lib/mscae/Cache_Redis_Product.svg;" vertex="1" parent="1">
          <mxGeometry x="1420" y="400" width="107.14" height="90" as="geometry" />
        </mxCell>
        <mxCell id="1qLdY8RK0upAKAE9O1Ap-74" style="edgeStyle=orthogonalEdgeStyle;rounded=0;orthogonalLoop=1;jettySize=auto;html=1;" edge="1" parent="1" source="1qLdY8RK0upAKAE9O1Ap-71" target="1qLdY8RK0upAKAE9O1Ap-63">
          <mxGeometry relative="1" as="geometry" />
        </mxCell>
        <mxCell id="1qLdY8RK0upAKAE9O1Ap-71" value="&lt;span style=&quot;font-size: 11px; text-wrap: nowrap; background-color: rgb(255, 255, 255);&quot;&gt;erp-1284app1&lt;/span&gt;" style="shape=parallelogram;perimeter=parallelogramPerimeter;whiteSpace=wrap;html=1;fixedSize=1;" vertex="1" parent="1">
          <mxGeometry x="1050" y="360" width="120" height="60" as="geometry" />
        </mxCell>
        <mxCell id="1qLdY8RK0upAKAE9O1Ap-73" style="edgeStyle=orthogonalEdgeStyle;rounded=0;orthogonalLoop=1;jettySize=auto;html=1;" edge="1" parent="1" source="1qLdY8RK0upAKAE9O1Ap-72" target="1qLdY8RK0upAKAE9O1Ap-63">
          <mxGeometry relative="1" as="geometry">
            <Array as="points">
              <mxPoint x="1290" y="260" />
              <mxPoint x="1290" y="445" />
            </Array>
          </mxGeometry>
        </mxCell>
        <mxCell id="1qLdY8RK0upAKAE9O1Ap-72" value="&lt;span style=&quot;font-size: 11px; text-wrap: nowrap; background-color: rgb(255, 255, 255);&quot;&gt;erp-1284&lt;/span&gt;" style="shape=parallelogram;perimeter=parallelogramPerimeter;whiteSpace=wrap;html=1;fixedSize=1;" vertex="1" parent="1">
          <mxGeometry x="1050" y="230" width="120" height="60" as="geometry" />
        </mxCell>
        <mxCell id="1qLdY8RK0upAKAE9O1Ap-82" value="&lt;span style=&quot;font-size: 11px; text-wrap: nowrap;&quot;&gt;erp-user-271app1&lt;/span&gt;" style="shape=parallelogram;perimeter=parallelogramPerimeter;whiteSpace=wrap;html=1;fixedSize=1;" vertex="1" parent="1">
          <mxGeometry x="1050" y="600" width="120" height="60" as="geometry" />
        </mxCell>
        <mxCell id="1qLdY8RK0upAKAE9O1Ap-85" style="edgeStyle=orthogonalEdgeStyle;rounded=0;orthogonalLoop=1;jettySize=auto;html=1;entryX=-0.009;entryY=0.506;entryDx=0;entryDy=0;entryPerimeter=0;" edge="1" parent="1" source="1qLdY8RK0upAKAE9O1Ap-82" target="1qLdY8RK0upAKAE9O1Ap-63">
          <mxGeometry relative="1" as="geometry" />
        </mxCell>
        <mxCell id="1qLdY8RK0upAKAE9O1Ap-87" value="60*60*3" style="edgeLabel;html=1;align=center;verticalAlign=middle;resizable=0;points=[];" vertex="1" connectable="0" parent="1">
          <mxGeometry x="1241" y="389.9999999999999" as="geometry" />
        </mxCell>
        <mxCell id="1qLdY8RK0upAKAE9O1Ap-88" value="60*60*3" style="edgeLabel;html=1;align=center;verticalAlign=middle;resizable=0;points=[];" vertex="1" connectable="0" parent="1">
          <mxGeometry x="1270" y="479.9999999999999" as="geometry">
            <mxPoint x="-27" y="145" as="offset" />
          </mxGeometry>
        </mxCell>
      </root>
    </mxGraphModel>
  </diagram>
</mxfile>
